<?xml version="1.0" encoding="UTF-8" standalone="no"?>
<!-- Created with Inkscape (http://www.inkscape.org/) -->

<svg
   xmlns:dc="http://purl.org/dc/elements/1.1/"
   xmlns:cc="http://creativecommons.org/ns#"
   xmlns:rdf="http://www.w3.org/1999/02/22-rdf-syntax-ns#"
   xmlns:svg="http://www.w3.org/2000/svg"
   xmlns="http://www.w3.org/2000/svg"
   xmlns:sodipodi="http://sodipodi.sourceforge.net/DTD/sodipodi-0.dtd"
   xmlns:inkscape="http://www.inkscape.org/namespaces/inkscape"
   width="210mm"
   height="297mm"
   viewBox="0 0 744.09448819 1052.3622047"
   id="svg2"
   version="1.1"
   inkscape:version="0.91 r13725"
   sodipodi:docname="AS.svg">
  <defs
     id="defs4" />
  <sodipodi:namedview
     id="base"
     pagecolor="#ffffff"
     bordercolor="#666666"
     borderopacity="1.0"
     inkscape:pageopacity="0.0"
     inkscape:pageshadow="2"
     inkscape:zoom="2.3789062"
     inkscape:cx="123.17723"
     inkscape:cy="573.31189"
     inkscape:document-units="px"
     inkscape:current-layer="layer1"
     showgrid="false"
     inkscape:window-width="1920"
     inkscape:window-height="1017"
     inkscape:window-x="-8"
     inkscape:window-y="-8"
     inkscape:window-maximized="1" />
  <metadata
     id="metadata7">
    <rdf:RDF>
      <cc:Work
         rdf:about="">
        <dc:format>image/svg+xml</dc:format>
        <dc:type
           rdf:resource="http://purl.org/dc/dcmitype/StillImage" />
        <dc:title></dc:title>
      </cc:Work>
    </rdf:RDF>
  </metadata>
  <g
     inkscape:label="Calque 1"
     inkscape:groupmode="layer"
     id="layer1"
     style="display:inline">
    <path
       style="opacity:1;fill:#e3261c;fill-opacity:1;stroke:#e5261c;stroke-width:0.58850574;stroke-miterlimit:4;stroke-dasharray:none;stroke-opacity:1"
       d="m 188.06055,397.64993 33.18096,-0.0275 28.74305,115.40314 -13.46958,0 c -5.23774,0 -7.36249,-0.23823 -12.55037,-0.19423 l -8.20004,-23.24607 -21.79762,-0.18699 -6.92357,23.7271 -13.44541,0.0819 -14.70867,-0.0667 z m 21.85948,66.1934 c 0,0 -4.1509,-21.43186 -5.19368,-22.47464 -0.82466,-0.82466 0.28367,-2.39577 0.28367,-2.39577 l -6.30935,28.73048 6.26936,0.0487 5.60057,0.0487 -5.92641,-27.43935 z"
       id="path4149"
       inkscape:connector-curvature="0"
       sodipodi:nodetypes="cccsccccccccscccccc" />
    <path
       style="opacity:1;fill:#e3261c;fill-opacity:1;stroke:#e5261c;stroke-width:0.58850574;stroke-miterlimit:4;stroke-dasharray:none;stroke-opacity:1"
       d="m 280.67094,512.46466 c -0.9248,-0.20123 -4.66554,-1.37592 -8.31277,-2.61043 -11.22722,-3.80018 -17.55945,-11.24148 -19.76843,-23.23079 -0.65276,-3.54286 0.2913,-6.83615 0.2913,-6.83615 l 30.26031,0.0298 0.69804,3.53336 c 1.73457,8.78012 14.05047,11.32451 21.03024,4.34475 2.17757,-2.17758 2.43625,-2.92937 2.03564,-5.91614 -0.85505,-6.37494 -5.8495,-10.84731 -21.61036,-19.35143 -16.86543,-9.10012 -26.50377,-17.04734 -30.91092,-25.48738 -4.69131,-8.98424 -2.06389,-24.3577 5.49149,-32.13161 8.52837,-8.77505 27.26275,-12.96585 46.01713,-10.29382 12.75638,1.81746 21.34692,6.35091 26.35142,13.90632 2.87442,4.3396 3.92572,7.48671 4.82268,14.437 l 0.56961,4.4138 -15.64565,0 -15.64566,0 -0.51452,-2.31199 c -1.06208,-4.77243 -1.39184,-5.32496 -4.39662,-7.36676 -5.32714,-3.61988 -14.01083,-2.47141 -17.34901,2.29451 -0.72166,1.03032 -1.31212,3.51627 -1.31212,5.52433 0,3.2904 0.43596,4.08155 4.4138,8.00998 2.42758,2.39743 7.44039,6.02782 11.13957,8.06754 19.16032,10.56495 28.53675,17.10969 33.07558,23.08673 3.79418,4.99643 6.0023,10.77041 5.98925,15.66118 -0.0446,16.71054 -9.01888,27.46223 -26.32974,31.54447 -4.85084,1.14392 -26.07918,1.62085 -30.39026,0.68277 z"
       id="path4151"
       inkscape:connector-curvature="0"
       sodipodi:nodetypes="sssccssssssssscccssssssssss" />
    <path
       style="opacity:1;fill:#e3261c;fill-opacity:1;stroke:#e5261c;stroke-width:0.58850574;stroke-miterlimit:4;stroke-dasharray:none;stroke-opacity:1"
       d="m 183.14713,588.79043 -0.08,-64.87858 15.61097,-0.0772 14.95149,31.1855 -0.63679,-31.06517 8.40723,0 8.40722,0 c 0,21.57855 0,43.15709 0,64.73564 -5.81862,0 -11.63723,0 -17.45585,0 l -11.97245,-29.64822 0.5975,29.76885 z"
       id="path4153"
       inkscape:connector-curvature="0"
       sodipodi:nodetypes="cccccccccccc" />
    <path
       style="opacity:1;fill:#e3261c;fill-opacity:1;stroke:#e5261c;stroke-width:0.58850574;stroke-miterlimit:4;stroke-dasharray:none;stroke-opacity:1"
       d="m 159.25537,588.85005 c 0,0 -0.0688,-50.66943 -0.0688,-64.70415 l 16.99006,-0.0482 0.01,64.7744 z"
       id="path4155"
       inkscape:connector-curvature="0"
       sodipodi:nodetypes="ccccc" />
    <path
       style="opacity:1;fill:#e3261c;fill-opacity:1;stroke:#e5261c;stroke-width:0.58850574;stroke-miterlimit:4;stroke-dasharray:none;stroke-opacity:1"
       d="m 247.15886,587.01566 c -5.1244,-2.0016 -7.0916,-3.74014 -9.04468,-7.99335 -1.91416,-4.16844 -2.01903,-7.63895 -0.25133,-8.31728 0.73141,-0.28067 4.31579,-0.51031 7.96527,-0.51031 6.50767,0 6.6603,0.0481 7.92681,2.49725 2.19691,4.24836 7.35482,5.59594 11.17557,2.91978 4.42497,-3.09937 0.99904,-9.0528 -7.79979,-13.55415 -14.44594,-7.39032 -20.61305,-13.88219 -20.57924,-21.66294 0.0199,-4.58107 2.12173,-10.10012 4.72767,-12.41413 4.14561,-3.68119 9.63872,-5.21363 18.79409,-5.24306 7.44551,-0.0239 9.48092,0.27162 13.00049,1.88776 2.29509,1.05388 4.90222,2.56376 5.79361,3.3553 2.13707,1.89766 4.70449,7.57858 4.72767,10.4609 0.0231,2.86639 -1.56306,3.33937 -10.05841,2.99942 -5.43848,-0.21763 -6.39302,-0.49098 -7.16907,-2.05301 -1.8095,-3.64221 -3.08839,-4.50346 -6.68729,-4.50346 -4.08447,0 -6.33278,1.86603 -6.33278,5.25604 0,2.90213 3.5519,6.33134 10.18652,9.83468 14.58529,7.70161 20.07012,13.47842 20.07635,21.14507 0.01,12.20374 -7.31829,17.60651 -23.7788,17.53112 -6.36442,-0.0291 -9.64326,-0.45234 -12.67266,-1.63563 z"
       id="path4157"
       inkscape:connector-curvature="0" />
    <path
       inkscape:connector-curvature="0"
       id="path4161"
       d="m 286.14894,588.71664 15.28686,-64.70317 18.54187,-0.0231 15.13306,64.74865 -13.83817,-0.0203 c 0,0 -2.45347,-8.4283 -3.60983,-13.05929 l -13.45156,0 -1.53033,6.40549 -1.60464,6.62842 -14.92726,0.0233 z m 24.3649,-39.01638 -2.89491,13.8923 3.48191,-0.12367 3.00718,0 -3.59418,-13.76868 z"
       style="opacity:1;fill:#e3261c;fill-opacity:1;stroke:#e5261c;stroke-width:0.58850574;stroke-miterlimit:4;stroke-dasharray:none;stroke-opacity:1"
       sodipodi:nodetypes="ccccccccccccccccc" />
    <path
       style="opacity:1;fill:#616163;fill-opacity:1;stroke:#616163;stroke-width:0.58850574;stroke-miterlimit:4;stroke-dasharray:none;stroke-opacity:1"
       d="m 158.08283,397.00589 19.75699,0.15408 -19.72473,80.46855 -0.0323,-80.62263 z"
       id="path4174"
       inkscape:connector-curvature="0"
       sodipodi:nodetypes="ccccc" />
    <path
       style="opacity:1;fill:#616163;fill-opacity:1;stroke:#616163;stroke-width:0.58850574;stroke-miterlimit:4;stroke-dasharray:none;stroke-opacity:1"
       d="m 164.17195,604.66725 -4.97064,-0.11519 c -0.0187,-2.02774 -0.0148,-3.67492 -0.0148,-5.82969 5.99902,0.15908 18.04962,0.004 18.04962,0.004 l -0.0134,5.82277 c 0,0 -2.72183,0.11858 -5.05766,0.1815 l 0.0549,21.79212 -7.98918,0 -0.0589,-21.85585 z"
       id="path4176"
       inkscape:connector-curvature="0"
       sodipodi:nodetypes="cccccccccc" />
    <path
       style="opacity:1;fill:#616163;fill-opacity:1;stroke:#616163;stroke-width:0.58850574;stroke-miterlimit:4;stroke-dasharray:none;stroke-opacity:1"
       d="m 184.79938,625.72316 c -1.99425,-1.32532 -3.52037,-2.74865 -4.1107,-11.10003 -0.70077,-9.91373 0.3815,-13.42042 4.59527,-14.88935 3.30486,-1.15208 8.36359,-1.2358 11.12954,-0.18418 4.33842,1.64946 4.80917,2.88993 4.80917,12.67254 0,5.01552 -0.35568,9.73419 -0.83751,10.37498 -3.68974,4.90704 -9.74811,7.00558 -15.58577,3.12604 z m 9.37695,-14.16418 c 0.0478,-6.15582 -0.28758,-6.52974 -1.96984,-6.9317 -3.64828,-0.87172 -4.0023,1.20596 -4.27011,6.82432 -0.36537,7.66504 -0.14955,10.8894 2.9907,11.26715 4.53605,-0.28136 3.1462,-8.0253 3.24925,-11.15977 z"
       id="path4178"
       inkscape:connector-curvature="0"
       sodipodi:nodetypes="ssssssscsscc" />
    <path
       style="opacity:1;fill:#616163;fill-opacity:1;stroke:#616163;stroke-width:0.58850574;stroke-miterlimit:4;stroke-dasharray:none;stroke-opacity:1"
       d="m 204.58594,598.7793 0.0254,11.56054 c 0.0276,11.92541 0.3477,13.21227 3.75781,15.16797 0.9248,0.53037 4.07445,0.97614 7,0.99024 4.77511,0.0229 6.31431,-0.37413 8.14889,-2.28302 3.26757,-4.06823 1.96624,-9.31692 2.08549,-14.02167 l 0,-11.41406 -3.78321,0 -3.7832,0 0,10.47851 c 0,9.72719 -0.20198,11.71661 -2.33008,11.85547 -2.21237,0.14436 -3.55469,-0.53754 -3.55469,-11.92773 l 0,-10.40625 -3.7832,0 z"
       id="path4180"
       inkscape:connector-curvature="0"
       sodipodi:nodetypes="ccsccccccsssccc" />
    <path
       style="opacity:1;fill:#616163;fill-opacity:1;stroke:#616163;stroke-width:0.58850574;stroke-miterlimit:4;stroke-dasharray:none;stroke-opacity:1"
       d="m 228.95007,626.68077 c 0,0 -0.0969,-17.52743 -0.0822,-27.95403 l 7.09027,-0.0417 c 0.15661,7.4578 -0.002,14.91561 0.15455,22.37341 l 7.93433,0.0461 c 0.0763,1.77875 0.0525,3.03222 0.0525,5.41863 -5.52774,0.16166 -15.14949,0.15764 -15.14949,0.15764 z"
       id="path4182"
       inkscape:connector-curvature="0"
       sodipodi:nodetypes="ccccccc" />
    <path
       style="opacity:1;fill:#616163;fill-opacity:1;stroke:#616163;stroke-width:0.58850574;stroke-miterlimit:4;stroke-dasharray:none;stroke-opacity:1"
       d="m 251.07949,625.67249 c -3.09158,-1.24502 -4.45782,-5.10244 -4.45782,-12.58617 0,-8.48259 1.35923,-12.0557 5.07936,-13.35254 4.94442,-1.72364 11.35114,-0.95935 14.19904,1.69387 1.55315,1.44699 1.73967,2.60136 1.73967,10.76719 0,5.03054 -0.82233,9.33013 -1.67823,11.40063 -1.20703,2.91993 -9.74903,4.14415 -14.88202,2.07702 z m 7.9776,-4.90821 c 0.78641,-0.49891 1.01815,-2.75484 0.84072,-8.18417 -0.22793,-6.97501 -0.37232,-7.51354 -2.07968,-7.7566 -2.77436,-0.39497 -3.85994,2.49162 -3.47814,9.24851 0.22098,3.91069 0.73345,6.07983 1.5599,6.60255 1.50577,0.95238 1.78492,0.96032 3.1572,0.0897 z"
       id="path4184"
       inkscape:connector-curvature="0"
       sodipodi:nodetypes="ssssssscsssscc" />
    <path
       style="opacity:1;fill:#616163;fill-opacity:1;stroke:#616163;stroke-width:0.58850574;stroke-miterlimit:4;stroke-dasharray:none;stroke-opacity:1"
       d="m 276.58717,626.49942 c -5.28986,-1.58523 -5.58454,-2.41157 -5.58454,-15.65996 l 0,-12.06017 3.75813,0 3.75813,0 0.2353,10.71921 0.2353,10.71921 2.10181,0 2.1018,0 0.42036,-10.50903 0.42037,-10.50903 3.99343,-0.25625 3.99343,-0.25624 -0.0124,11.18564 c -0.008,7.19709 -0.38271,11.90997 -1.05091,13.217 -1.75251,3.42799 -8.76036,5.09074 -14.37022,3.40962 z"
       id="path4186"
       inkscape:connector-curvature="0" />
    <path
       style="opacity:1;fill:#616163;fill-opacity:1;stroke:#616163;stroke-width:0.58850574;stroke-miterlimit:4;stroke-dasharray:none;stroke-opacity:1"
       d="m 301.73672,626.46365 c -3.39797,-0.58359 -7.5713,-4.25946 -6.95757,-6.12825 0.51658,-1.57298 7.25364,-1.71583 7.84821,-0.16641 0.29481,0.76827 1.50822,1.3098 2.93484,1.3098 3.99823,0 3.21942,-2.97077 -1.49619,-5.70722 -2.16063,-1.2538 -5.23295,-3.51708 -6.82737,-5.0295 -2.50709,-2.37816 -2.82564,-3.11645 -2.35657,-5.46178 0.76195,-3.80979 2.84698,-5.55299 7.386,-6.17514 7.22123,-0.98978 13.29285,1.56439 13.29285,5.59194 0,1.38758 -0.58494,1.6487 -3.6933,1.6487 -2.50738,0 -3.8487,-0.40494 -4.17723,-1.26108 -0.63026,-1.64245 -4.64987,-1.6343 -5.28111,0.0107 -0.66057,1.72141 1.00977,3.55505 5.10853,5.60793 5.2725,2.64077 8.04311,5.62815 8.04311,8.67241 0,3.12492 -2.50105,6.09533 -5.69815,6.76748 -4.13942,0.87026 -4.77794,0.89544 -8.12605,0.32042 z"
       id="path4188"
       inkscape:connector-curvature="0" />
    <path
       style="opacity:1;fill:#616163;fill-opacity:1;stroke:#616163;stroke-width:0.58850574;stroke-miterlimit:4;stroke-dasharray:none;stroke-opacity:1"
       d="m 318.92381,612.65121 0,-13.87192 9.24795,0 9.24794,0 0,2.90241 -0.0525,2.58714 -10.50468,0.0733 0.10075,4.68346 7.35346,-0.004 0,5.77997 -7.30092,0.057 0.0931,6.50934 c 2.28668,0.063 10.20574,0.0643 10.20574,0.0643 0,0 0.10509,2.67261 0.10509,5.09139 l -9.24794,0 -9.24795,0 0,-13.87192 z"
       id="path4190"
       inkscape:connector-curvature="0"
       sodipodi:nodetypes="cccccccccccccccccc" />
    <path
       style="opacity:1;fill:#616163;fill-opacity:1;stroke:#616163;stroke-width:0.58850574;stroke-miterlimit:4;stroke-dasharray:none;stroke-opacity:1"
       d="m 326.45307,523.60542 c 0.2362,0.78732 11.38524,40.30678 11.38524,40.30678 l 0.18731,-40.37704 c -3.72314,-0.0354 -11.57255,0.0703 -11.57255,0.0703 z"
       id="path4192"
       inkscape:connector-curvature="0"
       sodipodi:nodetypes="cccc" />
  </g>
</svg>
